<mxfile host="app.diagrams.net" modified="2021-01-12T04:46:24.460Z" agent="5.0 (Windows NT 10.0; Win64; x64) AppleWebKit/537.36 (KHTML, like Gecko) Chrome/86.0.4240.75 Safari/537.36" etag="urUxF43uMaE6DVGF3K44" version="14.1.3" type="github">
  <diagram id="KYRpn0k_UJ09isUdMBL9" name="Page-1">
    <mxGraphModel dx="2062" dy="1123" grid="1" gridSize="10" guides="1" tooltips="1" connect="1" arrows="1" fold="1" page="1" pageScale="1" pageWidth="827" pageHeight="1169" math="0" shadow="0">
      <root>
        <mxCell id="0" />
        <mxCell id="1" parent="0" />
        <mxCell id="bGy-YOQEpfzG_RjUD2R2-1" value="" style="rounded=1;whiteSpace=wrap;html=1;" vertex="1" parent="1">
          <mxGeometry x="180" y="600" width="440" height="280" as="geometry" />
        </mxCell>
        <mxCell id="bGy-YOQEpfzG_RjUD2R2-3" value="" style="rounded=1;whiteSpace=wrap;html=1;" vertex="1" parent="1">
          <mxGeometry x="180" y="310" width="440" height="280" as="geometry" />
        </mxCell>
        <mxCell id="bGy-YOQEpfzG_RjUD2R2-4" value="" style="rounded=1;whiteSpace=wrap;html=1;" vertex="1" parent="1">
          <mxGeometry x="180" y="20" width="440" height="280" as="geometry" />
        </mxCell>
        <mxCell id="bGy-YOQEpfzG_RjUD2R2-6" value="操作系统并发编程" style="text;html=1;strokeColor=#82b366;fillColor=#d5e8d4;align=center;verticalAlign=middle;whiteSpace=wrap;rounded=0;" vertex="1" parent="1">
          <mxGeometry x="335" y="700" width="130" height="60" as="geometry" />
        </mxCell>
        <mxCell id="bGy-YOQEpfzG_RjUD2R2-7" value="JUC" style="text;html=1;strokeColor=#82b366;fillColor=#d5e8d4;align=center;verticalAlign=middle;whiteSpace=wrap;rounded=0;" vertex="1" parent="1">
          <mxGeometry x="335" y="420" width="130" height="60" as="geometry" />
        </mxCell>
        <mxCell id="bGy-YOQEpfzG_RjUD2R2-8" value="应用程序" style="text;html=1;strokeColor=#82b366;fillColor=#d5e8d4;align=center;verticalAlign=middle;whiteSpace=wrap;rounded=0;" vertex="1" parent="1">
          <mxGeometry x="330" y="120" width="130" height="60" as="geometry" />
        </mxCell>
      </root>
    </mxGraphModel>
  </diagram>
</mxfile>
